<?xml version="1.0" encoding="iso-8859-1"?>
<!-- Generator: Adobe Illustrator 21.0.0, SVG Export Plug-In . SVG Version: 6.00 Build 0)  -->
<svg version="1.1" id="&#x56FE;&#x5C42;_1" xmlns="http://www.w3.org/2000/svg" xmlns:xlink="http://www.w3.org/1999/xlink" x="0px"
	 y="0px" width="90px" height="33px" viewBox="0 0 90 33" style="enable-background:new 0 0 90 33;" xml:space="preserve">
<g>
	<path style="fill:#F9F9F9;" d="M8.38,20.139c0,1.52-0.354,2.604-1.06,3.25s-1.787,0.97-3.24,0.97c-0.76,0-1.383-0.104-1.87-0.31
		c-0.487-0.207-0.874-0.5-1.16-0.88s-0.483-0.823-0.59-1.33c-0.107-0.507-0.16-1.04-0.16-1.601v-0.619h2.64v0.439
		c0,0.76,0.083,1.323,0.25,1.69c0.167,0.366,0.51,0.55,1.03,0.55s0.863-0.184,1.03-0.55c0.167-0.367,0.25-0.931,0.25-1.69V9.86h2.88
		V20.139z"/>
	<path style="fill:#F9F9F9;" d="M15.66,22.879c-0.293,0.533-0.673,0.913-1.14,1.14s-1,0.34-1.6,0.34c-0.88,0-1.557-0.229-2.03-0.689
		s-0.71-1.23-0.71-2.311V13.38h2.76v7.419c0,0.56,0.093,0.95,0.28,1.17c0.187,0.22,0.487,0.33,0.9,0.33
		c0.973,0,1.46-0.594,1.46-1.78V13.38h2.761v10.759H15.7v-1.26H15.66z"/>
	<path style="fill:#F9F9F9;" d="M25.661,22.999c-0.308,0.507-0.65,0.859-1.03,1.06s-0.851,0.3-1.41,0.3
		c-1.134,0-1.967-0.433-2.5-1.3c-0.533-0.866-0.8-2.3-0.8-4.3c0-2,0.267-3.443,0.8-4.33s1.366-1.33,2.5-1.33
		c0.521,0,0.963,0.107,1.33,0.32c0.366,0.214,0.696,0.534,0.99,0.96h0.04V9.86h2.76v14.279h-2.64v-1.14H25.661z M22.951,21.409
		c0.18,0.594,0.569,0.891,1.17,0.891c0.612,0,1.01-0.297,1.189-0.891c0.181-0.593,0.271-1.477,0.271-2.649s-0.09-2.056-0.271-2.649
		c-0.18-0.593-0.577-0.89-1.189-0.89c-0.601,0-0.99,0.297-1.17,0.89c-0.181,0.593-0.271,1.477-0.271,2.649
		S22.771,20.816,22.951,21.409z"/>
	<path style="fill:#F9F9F9;" d="M31.1,25.599c0.507,0,0.87-0.134,1.091-0.4c0.22-0.267,0.35-0.619,0.39-1.06L29.56,13.38h2.881
		l1.6,7.439h0.04l1.399-7.439h2.761l-2.601,10.04c-0.239,0.893-0.47,1.616-0.689,2.17c-0.221,0.553-0.48,0.979-0.78,1.28
		c-0.3,0.3-0.66,0.496-1.08,0.59c-0.42,0.093-0.95,0.14-1.59,0.14h-1.12v-2.06C30.62,25.579,30.86,25.599,31.1,25.599z"/>
	<path style="fill:#F9F9F9;" d="M48.96,9.86c0.586,0,1.13,0.06,1.63,0.18s0.93,0.32,1.29,0.6c0.359,0.28,0.64,0.653,0.84,1.12
		s0.3,1.04,0.3,1.72c0,0.773-0.18,1.437-0.54,1.99c-0.359,0.553-0.899,0.93-1.62,1.13v0.04c0.8,0.107,1.434,0.447,1.9,1.02
		s0.7,1.34,0.7,2.3c0,0.56-0.074,1.093-0.221,1.6s-0.396,0.95-0.75,1.33s-0.813,0.684-1.38,0.91s-1.27,0.34-2.109,0.34h-4.86V9.86
		H48.96z M47.84,15.72c0.8,0,1.383-0.143,1.75-0.43c0.366-0.287,0.55-0.77,0.55-1.45c0-0.68-0.167-1.16-0.5-1.44
		c-0.333-0.28-0.86-0.42-1.58-0.42h-1.04v3.74H47.84z M48.14,22.019c0.693,0,1.253-0.153,1.68-0.46s0.641-0.873,0.641-1.7
		c0-0.413-0.058-0.756-0.17-1.029c-0.114-0.273-0.268-0.493-0.46-0.66c-0.194-0.167-0.424-0.283-0.69-0.35s-0.56-0.1-0.88-0.1h-1.24
		v4.299H48.14z"/>
	<path style="fill:#F9F9F9;" d="M55.16,16.419c0-0.626,0.1-1.15,0.3-1.57s0.47-0.76,0.81-1.02c0.34-0.26,0.74-0.446,1.2-0.56
		c0.46-0.113,0.95-0.17,1.47-0.17c0.827,0,1.493,0.08,2,0.24c0.507,0.16,0.9,0.387,1.181,0.68c0.279,0.293,0.47,0.644,0.569,1.05
		c0.101,0.407,0.15,0.85,0.15,1.33v5.66c0,0.507,0.023,0.9,0.07,1.18c0.046,0.28,0.136,0.58,0.27,0.9h-2.64
		c-0.094-0.173-0.164-0.356-0.21-0.55c-0.047-0.193-0.09-0.384-0.13-0.57h-0.04c-0.32,0.561-0.69,0.924-1.11,1.09
		c-0.42,0.167-0.964,0.25-1.63,0.25c-0.48,0-0.887-0.083-1.22-0.25c-0.334-0.166-0.601-0.396-0.801-0.689
		c-0.199-0.293-0.347-0.623-0.439-0.99c-0.094-0.366-0.141-0.73-0.141-1.09c0-0.507,0.054-0.943,0.16-1.311
		c0.106-0.366,0.271-0.68,0.49-0.939s0.5-0.477,0.84-0.65c0.34-0.173,0.75-0.326,1.23-0.46l1.56-0.419
		c0.413-0.106,0.7-0.253,0.86-0.44c0.16-0.187,0.24-0.46,0.24-0.82c0-0.413-0.098-0.737-0.29-0.97
		c-0.193-0.233-0.523-0.35-0.99-0.35c-0.427,0-0.747,0.127-0.96,0.38c-0.214,0.253-0.32,0.593-0.32,1.02v0.3H55.16V16.419z
		 M59.6,19.109c-0.213,0.087-0.406,0.15-0.58,0.19c-0.56,0.12-0.96,0.32-1.2,0.6c-0.239,0.28-0.359,0.66-0.359,1.141
		c0,0.413,0.08,0.767,0.24,1.06c0.159,0.294,0.426,0.44,0.8,0.44c0.187,0,0.38-0.03,0.58-0.091c0.199-0.06,0.383-0.156,0.55-0.29
		c0.166-0.133,0.303-0.306,0.41-0.52c0.106-0.213,0.16-0.467,0.16-0.76v-2.12C60.013,18.906,59.812,19.023,59.6,19.109z"/>
	<path style="fill:#F9F9F9;" d="M67.56,9.86v4.52h0.04c0.293-0.427,0.623-0.747,0.99-0.96c0.366-0.213,0.81-0.32,1.33-0.32
		c1.133,0,1.967,0.443,2.5,1.33s0.8,2.33,0.8,4.33c0,2-0.267,3.434-0.8,4.3c-0.533,0.867-1.367,1.3-2.5,1.3
		c-0.56,0-1.03-0.1-1.41-0.3s-0.724-0.553-1.03-1.06h-0.04v1.14H64.8V9.86H67.56z M67.83,21.409c0.18,0.594,0.576,0.891,1.189,0.891
		c0.601,0,0.99-0.297,1.17-0.891c0.181-0.593,0.271-1.477,0.271-2.649s-0.09-2.056-0.271-2.649c-0.18-0.593-0.569-0.89-1.17-0.89
		c-0.613,0-1.01,0.297-1.189,0.89c-0.181,0.593-0.271,1.477-0.271,2.649S67.649,20.816,67.83,21.409z"/>
	<path style="fill:#F9F9F9;" d="M75.52,25.599c0.507,0,0.87-0.134,1.091-0.4c0.22-0.267,0.35-0.619,0.39-1.06L73.979,13.38h2.881
		l1.6,7.439h0.04l1.399-7.439h2.761l-2.601,10.04c-0.239,0.893-0.47,1.616-0.689,2.17c-0.221,0.553-0.48,0.979-0.78,1.28
		c-0.3,0.3-0.66,0.496-1.08,0.59c-0.42,0.093-0.95,0.14-1.59,0.14H74.8v-2.06C75.04,25.579,75.28,25.599,75.52,25.599z"/>
</g>
</svg>
