<?xml version="1.0" encoding="iso-8859-1"?>
<!-- Generator: Adobe Illustrator 21.0.0, SVG Export Plug-In . SVG Version: 6.00 Build 0)  -->
<svg version="1.1" id="&#x56FE;&#x5C42;_1" xmlns="http://www.w3.org/2000/svg" xmlns:xlink="http://www.w3.org/1999/xlink" x="0px"
	 y="0px" width="92px" height="33px" viewBox="0 0 92 33" style="enable-background:new 0 0 92 33;" xml:space="preserve">
<g>
	<path style="fill:#F9F9F9;" d="M8.38,20.139c0,1.52-0.354,2.604-1.06,3.25s-1.787,0.97-3.24,0.97c-0.76,0-1.383-0.104-1.87-0.31
		c-0.487-0.207-0.874-0.5-1.16-0.88s-0.483-0.823-0.59-1.33c-0.107-0.507-0.16-1.04-0.16-1.601v-0.619h2.64v0.439
		c0,0.76,0.083,1.323,0.25,1.69c0.167,0.366,0.51,0.55,1.03,0.55s0.863-0.184,1.03-0.55c0.167-0.367,0.25-0.931,0.25-1.69V9.86h2.88
		V20.139z"/>
	<path style="fill:#F9F9F9;" d="M12.96,19.819c0,0.36,0.023,0.69,0.07,0.99c0.046,0.3,0.133,0.561,0.26,0.78
		c0.127,0.22,0.3,0.394,0.52,0.52c0.22,0.127,0.497,0.19,0.83,0.19c0.347,0,0.626-0.063,0.84-0.19c0.213-0.126,0.383-0.3,0.51-0.52
		c0.126-0.22,0.213-0.48,0.26-0.78c0.046-0.3,0.07-0.63,0.07-0.99V9.86h2.88v9.959c0,0.907-0.127,1.657-0.381,2.25
		c-0.252,0.594-0.592,1.063-1.02,1.41c-0.426,0.347-0.914,0.58-1.46,0.7c-0.547,0.12-1.113,0.18-1.7,0.18s-1.153-0.053-1.7-0.16
		c-0.547-0.106-1.034-0.322-1.46-0.649c-0.427-0.327-0.767-0.79-1.02-1.391c-0.253-0.6-0.38-1.38-0.38-2.34V9.86h2.88V19.819z"/>
	<path style="fill:#F9F9F9;" d="M25.881,9.86c1,0,1.807,0.163,2.42,0.49c0.613,0.327,1.09,0.793,1.43,1.4
		c0.34,0.607,0.57,1.337,0.69,2.19c0.119,0.854,0.18,1.807,0.18,2.86c0,1.253-0.077,2.343-0.23,3.269
		c-0.153,0.927-0.416,1.69-0.79,2.29c-0.373,0.601-0.873,1.047-1.5,1.34c-0.626,0.294-1.42,0.44-2.38,0.44h-4.54V9.86H25.881z
		 M25.32,22.019c0.507,0,0.913-0.087,1.22-0.26s0.551-0.46,0.73-0.86c0.18-0.399,0.3-0.927,0.36-1.58
		c0.06-0.653,0.09-1.466,0.09-2.439c0-0.813-0.027-1.527-0.08-2.14c-0.054-0.613-0.163-1.123-0.33-1.53
		c-0.167-0.406-0.413-0.713-0.74-0.92c-0.327-0.207-0.764-0.31-1.31-0.31H24.04v10.04H25.32z"/>
	<path style="fill:#F9F9F9;" d="M36.28,15.38h0.04l2-5.52h3.12l-3.7,8.659v5.62h-2.88v-5.62l-3.7-8.659h3.24L36.28,15.38z"/>
	<path style="fill:#F9F9F9;" d="M52.12,9.86c0.586,0,1.13,0.06,1.63,0.18s0.93,0.32,1.29,0.6c0.359,0.28,0.64,0.653,0.84,1.12
		s0.3,1.04,0.3,1.72c0,0.773-0.18,1.437-0.54,1.99c-0.359,0.553-0.899,0.93-1.62,1.13v0.04c0.8,0.107,1.434,0.447,1.9,1.02
		s0.7,1.34,0.7,2.3c0,0.56-0.074,1.093-0.221,1.6s-0.396,0.95-0.75,1.33s-0.813,0.684-1.38,0.91s-1.27,0.34-2.109,0.34H47.3V9.86
		H52.12z M51,15.72c0.8,0,1.383-0.143,1.75-0.43c0.366-0.287,0.55-0.77,0.55-1.45c0-0.68-0.167-1.16-0.5-1.44
		c-0.333-0.28-0.86-0.42-1.58-0.42h-1.04v3.74H51z M51.3,22.019c0.693,0,1.253-0.153,1.68-0.46s0.641-0.873,0.641-1.7
		c0-0.413-0.058-0.756-0.17-1.029c-0.114-0.273-0.268-0.493-0.46-0.66c-0.194-0.167-0.424-0.283-0.69-0.35s-0.56-0.1-0.88-0.1h-1.24
		v4.299H51.3z"/>
	<path style="fill:#F9F9F9;" d="M64.76,9.86l3.78,14.279h-3l-0.66-3.02h-3.8l-0.66,3.02h-3L61.2,9.86H64.76z M64.38,18.759L63,12.34
		h-0.04l-1.38,6.419H64.38z"/>
	<path style="fill:#F9F9F9;" d="M74.36,9.86c0.586,0,1.13,0.06,1.63,0.18s0.93,0.32,1.29,0.6c0.359,0.28,0.64,0.653,0.84,1.12
		s0.3,1.04,0.3,1.72c0,0.773-0.18,1.437-0.54,1.99c-0.359,0.553-0.899,0.93-1.62,1.13v0.04c0.8,0.107,1.434,0.447,1.9,1.02
		s0.7,1.34,0.7,2.3c0,0.56-0.074,1.093-0.221,1.6s-0.396,0.95-0.75,1.33s-0.813,0.684-1.38,0.91s-1.27,0.34-2.109,0.34h-4.86V9.86
		H74.36z M73.24,15.72c0.8,0,1.383-0.143,1.75-0.43c0.366-0.287,0.55-0.77,0.55-1.45c0-0.68-0.167-1.16-0.5-1.44
		c-0.333-0.28-0.86-0.42-1.58-0.42h-1.04v3.74H73.24z M73.54,22.019c0.693,0,1.253-0.153,1.68-0.46s0.641-0.873,0.641-1.7
		c0-0.413-0.058-0.756-0.17-1.029c-0.114-0.273-0.268-0.493-0.46-0.66c-0.194-0.167-0.424-0.283-0.69-0.35s-0.56-0.1-0.88-0.1h-1.24
		v4.299H73.54z"/>
	<path style="fill:#F9F9F9;" d="M84.84,15.38h0.04l2-5.52H90l-3.7,8.659v5.62h-2.88v-5.62l-3.7-8.659h3.24L84.84,15.38z"/>
</g>
</svg>
