<?xml version="1.0" encoding="iso-8859-1"?>
<!-- Generator: Adobe Illustrator 21.0.0, SVG Export Plug-In . SVG Version: 6.00 Build 0)  -->
<svg version="1.1" id="&#x56FE;&#x5C42;_1" xmlns="http://www.w3.org/2000/svg" xmlns:xlink="http://www.w3.org/1999/xlink" x="0px"
	 y="0px" width="102px" height="33px" viewBox="0 0 102 33" style="enable-background:new 0 0 102 33;" xml:space="preserve">
<style type="text/css">
	.st0{fill:#FFFFFF;}
</style>
<path class="st0" d="M11.3,18.452c0,1.977-0.459,3.385-1.378,4.226c-0.919,0.841-2.323,1.261-4.212,1.261
	c-0.988,0-1.799-0.135-2.431-0.403c-0.633-0.269-1.136-0.649-1.508-1.144c-0.373-0.494-0.629-1.07-0.767-1.729
	c-0.139-0.658-0.208-1.352-0.208-2.079v-0.807h3.432v0.572c0,0.987,0.108,1.72,0.325,2.196c0.217,0.478,0.663,0.716,1.339,0.716
	c0.676,0,1.122-0.238,1.339-0.716c0.216-0.477,0.325-1.209,0.325-2.196V5.089H11.3V18.452z M20.764,22.015
	c-0.381,0.693-0.875,1.188-1.482,1.481c-0.605,0.295-1.299,0.442-2.08,0.442c-1.144,0-2.023-0.299-2.638-0.897
	c-0.616-0.598-0.923-1.599-0.923-3.003V9.665h3.589v9.646c0,0.728,0.121,1.234,0.363,1.521s0.633,0.43,1.17,0.43
	c1.266,0,1.898-0.771,1.898-2.314V9.665h3.588v13.988h-3.432v-1.638H20.764z M33.764,22.17c-0.399,0.659-0.846,1.118-1.339,1.379
	c-0.494,0.26-1.105,0.39-1.833,0.39c-1.474,0-2.558-0.563-3.25-1.69c-0.694-1.126-1.04-2.989-1.04-5.59
	c0-2.6,0.346-4.476,1.04-5.629c0.692-1.152,1.776-1.729,3.25-1.729c0.676,0,1.252,0.139,1.729,0.416
	c0.477,0.277,0.905,0.693,1.287,1.248h0.052V5.089h3.588v18.564h-3.432V22.17H33.764z M30.24,20.104
	c0.234,0.771,0.741,1.157,1.521,1.157c0.797,0,1.312-0.386,1.547-1.157c0.233-0.771,0.351-1.92,0.351-3.445
	c0-1.525-0.117-2.673-0.351-3.445c-0.234-0.771-0.75-1.157-1.547-1.157c-0.78,0-1.287,0.386-1.521,1.157
	c-0.233,0.771-0.351,1.92-0.351,3.445C29.89,18.184,30.007,19.332,30.24,20.104z M40.835,25.551c0.659,0,1.131-0.174,1.417-0.521
	s0.455-0.806,0.507-1.378L38.833,9.665h3.744l2.08,9.671h0.052l1.82-9.671h3.588l-3.38,13.052c-0.312,1.16-0.611,2.102-0.897,2.82
	c-0.286,0.72-0.624,1.274-1.014,1.664c-0.39,0.391-0.858,0.646-1.404,0.768c-0.546,0.121-1.234,0.182-2.066,0.182h-1.456v-2.678
	C40.211,25.525,40.523,25.551,40.835,25.551z M57.813,5.089c0.762,0,1.469,0.078,2.118,0.234c0.65,0.156,1.209,0.416,1.678,0.78
	c0.468,0.364,0.832,0.849,1.092,1.456c0.26,0.607,0.39,1.352,0.39,2.236c0,1.005-0.233,1.868-0.702,2.587
	c-0.468,0.719-1.17,1.209-2.105,1.469v0.052c1.04,0.139,1.863,0.581,2.47,1.326s0.91,1.742,0.91,2.989
	c0,0.729-0.096,1.422-0.286,2.081c-0.19,0.658-0.516,1.234-0.975,1.729c-0.46,0.494-1.058,0.889-1.794,1.183
	c-0.737,0.295-1.651,0.442-2.743,0.442h-6.318V5.089H57.813z M56.357,12.707c1.04,0,1.798-0.186,2.274-0.559
	c0.477-0.373,0.715-1.001,0.715-1.885c0-0.884-0.217-1.508-0.649-1.872c-0.434-0.364-1.118-0.546-2.054-0.546h-1.353v4.862H56.357z
	 M56.747,20.897c0.901,0,1.629-0.199,2.184-0.598c0.555-0.399,0.832-1.136,0.832-2.21c0-0.538-0.073-0.984-0.221-1.339
	s-0.347-0.641-0.598-0.858c-0.252-0.216-0.551-0.368-0.897-0.455s-0.728-0.13-1.144-0.13h-1.612v5.59H56.747z M65.873,13.617
	c0-0.814,0.13-1.495,0.39-2.041c0.261-0.546,0.611-0.988,1.054-1.326c0.441-0.338,0.962-0.581,1.56-0.728
	c0.599-0.147,1.235-0.221,1.911-0.221c1.074,0,1.941,0.104,2.6,0.312c0.659,0.208,1.17,0.503,1.534,0.884s0.611,0.836,0.741,1.365
	c0.13,0.529,0.195,1.105,0.195,1.729v7.358c0,0.659,0.029,1.17,0.091,1.534c0.061,0.364,0.178,0.754,0.351,1.17h-3.432
	c-0.121-0.225-0.213-0.464-0.273-0.715s-0.116-0.498-0.169-0.741h-0.052c-0.416,0.729-0.896,1.2-1.443,1.417
	c-0.546,0.217-1.252,0.325-2.118,0.325c-0.624,0-1.153-0.108-1.586-0.325c-0.434-0.217-0.78-0.516-1.04-0.896
	c-0.261-0.382-0.451-0.811-0.572-1.287c-0.122-0.477-0.183-0.949-0.183-1.417c0-0.659,0.069-1.227,0.208-1.703
	s0.352-0.884,0.638-1.222s0.649-0.62,1.092-0.845c0.442-0.225,0.975-0.424,1.599-0.598l2.028-0.546
	c0.537-0.138,0.91-0.329,1.118-0.572s0.312-0.598,0.312-1.066c0-0.537-0.126-0.958-0.377-1.261
	c-0.251-0.303-0.681-0.455-1.287-0.455c-0.555,0-0.971,0.165-1.248,0.494c-0.277,0.33-0.416,0.771-0.416,1.326v0.39h-3.224V13.617z
	 M71.646,17.114c-0.278,0.113-0.529,0.195-0.754,0.247c-0.729,0.156-1.248,0.416-1.561,0.779c-0.312,0.365-0.468,0.858-0.468,1.482
	c0,0.538,0.104,0.997,0.312,1.378c0.208,0.382,0.555,0.572,1.04,0.572c0.243,0,0.494-0.039,0.754-0.117
	c0.261-0.078,0.498-0.203,0.716-0.377c0.216-0.173,0.394-0.398,0.532-0.676s0.208-0.606,0.208-0.988v-2.756
	C72.183,16.849,71.922,17.001,71.646,17.114z M81.993,5.089v5.876h0.052c0.381-0.555,0.811-0.971,1.287-1.248
	c0.477-0.277,1.053-0.416,1.729-0.416c1.474,0,2.557,0.577,3.25,1.729c0.693,1.153,1.04,3.029,1.04,5.629
	c0,2.601-0.347,4.464-1.04,5.59c-0.693,1.127-1.776,1.69-3.25,1.69c-0.728,0-1.339-0.13-1.833-0.39
	c-0.493-0.261-0.94-0.72-1.339-1.379h-0.052v1.482h-3.432V5.089H81.993z M82.344,20.104c0.234,0.771,0.75,1.157,1.547,1.157
	c0.78,0,1.287-0.386,1.521-1.157c0.233-0.771,0.351-1.92,0.351-3.445c0-1.525-0.117-2.673-0.351-3.445
	c-0.234-0.771-0.741-1.157-1.521-1.157c-0.797,0-1.312,0.386-1.547,1.157c-0.233,0.771-0.351,1.92-0.351,3.445
	C81.993,18.184,82.11,19.332,82.344,20.104z M92.341,25.551c0.659,0,1.131-0.174,1.417-0.521s0.455-0.806,0.507-1.378L90.339,9.665
	h3.744l2.08,9.671h0.052l1.82-9.671h3.588l-3.38,13.052c-0.312,1.16-0.611,2.102-0.897,2.82c-0.286,0.72-0.624,1.274-1.014,1.664
	c-0.39,0.391-0.858,0.646-1.404,0.768c-0.546,0.121-1.234,0.182-2.066,0.182h-1.456v-2.678
	C91.717,25.525,92.029,25.551,92.341,25.551z"/>
</svg>
