<?xml version="1.0" encoding="iso-8859-1"?>
<!-- Generator: Adobe Illustrator 21.0.0, SVG Export Plug-In . SVG Version: 6.00 Build 0)  -->
<svg version="1.1" id="&#x56FE;&#x5C42;_1" xmlns="http://www.w3.org/2000/svg" xmlns:xlink="http://www.w3.org/1999/xlink" x="0px"
	 y="0px" width="200px" height="200px" viewBox="0 0 200 200" style="enable-background:new 0 0 200 200;" xml:space="preserve">
<path style="fill:#55565B;" d="M99.988,0C44.763,0,0,44.775,0,100s44.775,100,100,100s100-44.762,100-100
	C200,44.775,155.225,0,99.988,0z M53.938,48.075c6.888,0,12.463,5.025,12.463,11.188c0,6.15-5.575,11.175-12.462,11.175
	s-12.463-5.025-12.463-11.175C41.475,53.1,47.062,48.075,53.938,48.075z M64.338,115.212c-3.288,10.2-2.463,6.412-15.525,34.787
	l-18.925-11.787c0,0,21.1-19.213,25.438-27.975c4.575-9.25-5.063-14.188-5.063-14.188L35.775,87L43.6,74.937
	c10.925,8.113,11.75,8.8,19.125,16.188C68.438,96.85,67.712,104.8,64.338,115.212z M167.163,128.437
	c-3.688,34.625-48.7,21.75-48.7,21.75l2.438-9.9l8.725,2.238c19.3,1.238,15.725-15.625,15.725-15.625V77.912
	c0-18.6-15.8-20.525-47.475-9.188l8.225,0.937c-0.637,2.175-2.188,8.238-5.237,8.238h39.162v10.637l-21.275,0v10.637h21.275v5.312
	H118.75v21.362c0-1.2,7.188-2.8,10.075-4.938l-1.95-7.837l11.3-3.488l9.362,22.887l-13.787,5.738l-2.425-9.125
	c-6.163,4.738-18.988,11.55-41.338,10.95c-23.913,0.612-17.775-28.425-17.775-28.425l0.612-1.787h16.8
	c-0.113,5.312-1.562,10.787,0.425,13.925c1.625,2.588,4.825,3.762,7.5,3.888c0.3,0.05-0.075,0.787-0.075,0.787v-23.937H70.887
	v-5.312h26.588l0-10.637h-4.25C87.75,93.85,82.75,99.187,82.75,99.187l-7.362-6.425c5.225-5.5,10.45-14.188,13.675-20.012
	c-2.625,1.062-5.338,2.213-8.1,3.438c-2.75,3.437-5.85,6.975-9.325,10.462c0.125,0.188-12.012-6.812-12.012-6.812
	C72.175,69.112,79.213,46.15,79.213,46.15l17.475,4.888c0,0-1.463,3.4-4.425,8.6c69.925-19.787,73.975,12.138,73.975,12.138
	S170.85,93.837,167.163,128.437z"/>
</svg>
