<?xml version="1.0" encoding="utf-8"?>
<!-- Generator: Adobe Illustrator 21.0.0, SVG Export Plug-In . SVG Version: 6.00 Build 0)  -->
<svg version="1.1" id="图层_1" xmlns="http://www.w3.org/2000/svg" xmlns:xlink="http://www.w3.org/1999/xlink" x="0px" y="0px"
	 width="200px" height="200px" viewBox="0 0 200 200" style="enable-background:new 0 0 200 200;" xml:space="preserve">
<style type="text/css">
	.st0{fill:#FFFFFF;}
</style>
<path class="st0" d="M100,0C44.8,0,0,44.8,0,100s44.8,100,100,100s100-44.8,100-100C200,44.8,155.2,0,100,0z M53.9,48.1
	c6.9,0,12.5,5,12.5,11.2c0,6.2-5.6,11.2-12.5,11.2s-12.5-5-12.5-11.2C41.5,53.1,47.1,48.1,53.9,48.1z M64.3,115.2
	c-3.3,10.2-2.5,6.4-15.5,34.8l-18.9-11.8c0,0,21.1-19.2,25.4-28C59.9,101,50.3,96,50.3,96l-14.5-9l7.8-12.1
	c10.9,8.1,11.8,8.8,19.1,16.2C68.4,96.8,67.7,104.8,64.3,115.2z M167.2,128.4c-3.7,34.6-48.7,21.8-48.7,21.8l2.4-9.9l8.7,2.2
	c19.3,1.2,15.7-15.6,15.7-15.6v-49c0-18.6-15.8-20.5-47.5-9.2l8.2,0.9c-0.6,2.2-2.2,8.2-5.2,8.2H140v10.6h-21.3v10.6H140v5.3h-21.3
	v21.4c0-1.2,7.2-2.8,10.1-4.9l-1.9-7.8l11.3-3.5l9.4,22.9l-13.8,5.7l-2.4-9.1c-6.2,4.7-19,11.6-41.3,10.9
	c-23.9,0.6-17.8-28.4-17.8-28.4l0.6-1.8h16.8c-0.1,5.3-1.6,10.8,0.4,13.9c1.6,2.6,4.8,3.8,7.5,3.9c0.3,0.1-0.1,0.8-0.1,0.8v-23.9
	H70.9v-5.3h26.6V88.5h-4.2c-5.5,5.3-10.5,10.7-10.5,10.7l-7.4-6.4c5.2-5.5,10.4-14.2,13.7-20c-2.6,1.1-5.3,2.2-8.1,3.4
	c-2.8,3.4-5.8,7-9.3,10.5c0.1,0.2-12-6.8-12-6.8c12.5-10.7,19.6-33.7,19.6-33.7L96.7,51c0,0-1.5,3.4-4.4,8.6
	c69.9-19.8,74,12.1,74,12.1S170.9,93.8,167.2,128.4z"/>
</svg>
