<?xml version="1.0" encoding="iso-8859-1"?>
<!-- Generator: Adobe Illustrator 21.0.0, SVG Export Plug-In . SVG Version: 6.00 Build 0)  -->
<svg version="1.1" id="&#x56FE;&#x5C42;_1" xmlns="http://www.w3.org/2000/svg" xmlns:xlink="http://www.w3.org/1999/xlink" x="0px"
	 y="0px" width="200px" height="200px" viewBox="0 0 200 200" style="enable-background:new 0 0 200 200;" xml:space="preserve">
<path style="fill:#94AAA9;" d="M113.2,99.9c-2.3,0-4.6,2.1-4.6,4.7c0,2.1,2.3,4.2,4.6,4.2c3.4,0,5.9-2.1,5.9-4.2
	C119.1,102,116.6,99.9,113.2,99.9L113.2,99.9z M98.2,77.9c3.6,0,5.9-2.3,5.9-5.7c0-3.6-2.3-5.7-5.9-5.7c-3.4,0-6.7,2.1-6.7,5.7
	C91.5,75.6,94.8,77.9,98.2,77.9L98.2,77.9z M100,0C44.8,0,0,44.8,0,100s44.8,100,100,100s100-44.8,100-100S155.2,0,100,0L100,0z
	 M81.1,125.3c-6,0-10.4-1-16.1-2.6L48.5,131l4.7-14c-11.6-8.1-18.4-18.4-18.4-31c0-22.1,20.9-39,46.3-39c22.5,0,42.5,13.4,46.4,32.3
	c-1.6-0.3-3.1-0.5-4.4-0.5c-22.2,0-39.3,16.6-39.3,36.7c0,3.4,0.5,6.5,1.3,9.8C83.9,125.3,82.4,125.3,81.1,125.3L81.1,125.3
	L81.1,125.3z M149,141.3l3.3,11.7l-12.4-7c-4.7,1-9.3,2.4-14,2.4c-21.8,0-39.1-15-39.1-33.6s17.3-33.6,39.1-33.6
	c20.7,0,39.3,15,39.3,33.6C165.2,125.3,158.2,134.6,149,141.3L149,141.3L149,141.3z M65.9,66.5c-3.4,0-7,2.1-7,5.7
	c0,3.4,3.6,5.7,7,5.7c3.3,0,5.9-2.3,5.9-5.7C71.8,68.6,69.2,66.5,65.9,66.5L65.9,66.5z M138.8,99.9c-2.4,0-4.6,2.1-4.6,4.7
	c0,2.1,2.1,4.2,4.6,4.2c3.3,0,5.7-2.1,5.7-4.2C144.5,102,142,99.9,138.8,99.9z"/>
</svg>
