<?xml version="1.0" encoding="iso-8859-1"?>
<!-- Generator: Adobe Illustrator 21.0.0, SVG Export Plug-In . SVG Version: 6.00 Build 0)  -->
<svg version="1.1" id="&#x56FE;&#x5C42;_1" xmlns="http://www.w3.org/2000/svg" xmlns:xlink="http://www.w3.org/1999/xlink" x="0px"
	 y="0px" width="200px" height="200px" viewBox="0 0 200 200" style="enable-background:new 0 0 200 200;" xml:space="preserve">
<path style="fill:#55565B;" d="M80.326,118.682c-3.511-1.466-8.045,0.045-10.208,3.426c-2.192,3.397-1.163,7.442,2.318,9.024
	c3.537,1.608,8.229,0.082,10.418-3.403C85.011,124.208,83.876,120.189,80.326,118.682z M88.974,115.108
	c-1.345-0.532-3.029,0.113-3.818,1.432c-0.766,1.326-0.342,2.837,1.005,3.392c1.371,0.563,3.126-0.089,3.916-1.439
	C90.834,117.137,90.342,115.608,88.974,115.108z M83.5,91.663c-22.65,2.234-39.829,16.058-38.355,30.874
	c1.471,14.826,21.026,25.032,43.682,22.803c22.655-2.234,39.829-16.058,38.358-30.887C125.716,99.637,106.161,89.432,83.5,91.663z
	 M103.379,126.621c-4.624,10.421-17.924,15.976-29.205,12.35c-10.889-3.503-15.503-14.221-10.732-23.876
	c4.679-9.466,16.866-14.818,27.645-12.024C102.247,105.945,107.942,116.434,103.379,126.621z M100,0C44.774,0,0,44.771,0,100
	c0,55.226,44.774,100,100,100c55.229,0,100-44.774,100-100C200,44.771,155.229,0,100,0z M88.971,155.268
	c-28.389,0-57.411-13.711-57.411-36.263c0-11.789,7.497-25.426,20.405-38.295C69.203,63.537,89.303,55.713,96.863,63.25
	c3.337,3.321,3.661,9.074,1.516,15.942c-1.118,3.455,3.255,1.542,3.255,1.55c13.934-5.813,26.087-6.155,30.532,0.168
	c2.371,3.368,2.139,8.1-0.042,13.576c-1.011,2.524,0.311,2.916,2.239,3.492c7.847,2.426,16.587,8.292,16.587,18.629
	C150.945,133.718,126.189,155.268,88.971,155.268z M140.366,83.555c0.921-2.824,0.345-6.047-1.797-8.411
	c-2.139-2.358-5.3-3.255-8.211-2.642v-0.005c-2.434,0.526-4.829-1.029-5.35-3.45c-0.521-2.434,1.032-4.824,3.466-5.339
	c5.963-1.263,12.421,0.574,16.795,5.413c4.384,4.837,5.558,11.424,3.682,17.2c-0.763,2.363-3.308,3.658-5.676,2.9
	c-2.371-0.766-3.668-3.305-2.905-5.663h-0.003V83.555z M166.653,92.018c-0.003,0.003-0.003,0.016-0.003,0.021
	c-0.892,2.739-3.85,4.239-6.597,3.353c-2.761-0.889-4.268-3.826-3.379-6.576v-0.003c2.734-8.432,1-18.053-5.384-25.111
	c-6.389-7.055-15.811-9.75-24.513-7.908c-2.829,0.603-5.616-1.197-6.218-4.018c-0.605-2.813,1.2-5.592,4.032-6.195h0.005
	c12.232-2.592,25.492,1.195,34.482,11.126C168.063,66.624,170.487,80.153,166.653,92.018z"/>
</svg>
